[img]http://www.khaolaknews.com/wp-content/uploads/2011/03/f1.jpg[/img]

Formula One 2011 Season

Race 17: Abu Dharbi Grand Prix 

Record Source: BBC One Red Button Stream
Original Format: MPEG TS Stream
Date: Friday 11th November 2011
Time: 09:00 to 10:30

Abu Dharbi Grand Prix Practice Session 1

BBC F1 coverage of the 1st Practice Session for the 18th Race meeting of the 
2011 Formula One Season, The Adu Dharbi Grand Prix from the Yas Marina Curcuit



Enjoy, TheBlackKnight



Complete name                    : F1 2011 Race 18 Abu Dharbi Practice 1.mkv
Format                           : Matroska
Format version                   : Version 2
File size                        : 1.14 GiB
Duration                         : 1h 40mn
Overall bit rate                 : 1 633 Kbps
Writing application              : HandBrake 0.9.5
Writing library                  : libmkv 0.6.4.1

Video
ID                               : 1
Format                           : AVC
Format/Info                      : Advanced Video Codec
Format profile                   : Main@L3.0
Format settings, CABAC           : Yes
Format settings, ReFrames        : 4 frames
Codec ID                         : V_MPEG4/ISO/AVC
Duration                         : 1h 40mn
Bit rate                         : 1 500 Kbps
Width                            : 544 pixels
Height                           : 576 pixels
Display aspect ratio             : 16:9
Frame rate mode                  : Variable
Frame rate                       : 25.000 fps
Color space                      : YUV
Chroma subsampling               : 4:2:0
Bit depth                        : 8 bits
Scan type                        : Progressive
Bits/(Pixel*Frame)               : 0.191
Stream size                      : 1.03 GiB (90%)
Writing library                  : x264 core 112
Language                         : English
Color primaries                  : BT.601-6 525, BT.1358 525, BT.1700 NTSC, SMPTE 170M
Transfer characteristics         : BT.709-5, BT.1361
Matrix coefficients              : BT.601-6 525, BT.1358 525, BT.1700 NTSC, SMPTE 170M

Audio
ID                               : 2
Format                           : AC-3
Format/Info                      : Audio Coding 3
Mode extension                   : CM (complete main)
Codec ID                         : A_AC3
Duration                         : 1h 40mn
Bit rate mode                    : Constant
Bit rate                         : 128 Kbps
Channel(s)                       : 2 channels
Channel positions                : Front: L R
Sampling rate                    : 48.0 KHz
Bit depth                        : 16 bits
Compression mode                 : Lossy
Stream size                      : 91.8 MiB (8%)
Language                         : English

